<svg id="Camada_1" data-name="Camada 1" xmlns="http://www.w3.org/2000/svg" viewBox="0 0 120.06 32"><defs><style>.cls-1,.cls-2{fill:none;}.cls-2{stroke:#000;stroke-width:2px;}</style></defs><title>little-invest</title><path d="M11.41,25.5V23.78A5.88,5.88,0,0,1,8.85,23a7.1,7.1,0,0,1-1.8-1.52L8.51,20.2a5.6,5.6,0,0,0,1.35,1.22,4.06,4.06,0,0,0,1.69.58V17.52a6.32,6.32,0,0,1-3.12-1.39,3.25,3.25,0,0,1-1-2.45,3.2,3.2,0,0,1,1.06-2.54A5.07,5.07,0,0,1,11.41,10V8.26h1.7V10a5.79,5.79,0,0,1,2.23.64A5.35,5.35,0,0,1,17,12.06l-1.48,1.22a4.21,4.21,0,0,0-1-1A3.72,3.72,0,0,0,13,11.78v4.1l.08,0a12.54,12.54,0,0,1,1.88.62,4.66,4.66,0,0,1,1.27.79,2.58,2.58,0,0,1,.71,1,4,4,0,0,1,.22,1.37,3.72,3.72,0,0,1-1,2.7,4.87,4.87,0,0,1-3,1.32V25.5Zm3.64-5.64a1.79,1.79,0,0,0-.44-1.25A3.33,3.33,0,0,0,13,17.82V22a2.67,2.67,0,0,0,1.52-.72A2,2,0,0,0,15.05,19.86Zm-5.5-6.28A1.57,1.57,0,0,0,10,14.85a3.82,3.82,0,0,0,1.51.71v-3.8a2.77,2.77,0,0,0-1.48.6A1.54,1.54,0,0,0,9.55,13.58Z" transform="translate(0.06)"/><path class="cls-1" d="M4,0H20.21c2.23,0,4.05,2.12,4.05,4.74V27.26c0,2.62-1.82,4.74-4.05,4.74H4c-2.24,0-4-2.12-4-4.74V4.74C-.06,2.12,1.75,0,4,0Z" transform="translate(0.06)"/><path class="cls-2" d="M4,1.19H20.21a3.33,3.33,0,0,1,3,3.55V27.26a3.33,3.33,0,0,1-3,3.55H4a3.32,3.32,0,0,1-3-3.55V4.74A3.32,3.32,0,0,1,4,1.19Z" transform="translate(0.06)"/><path d="M34.08,24.09a2.11,2.11,0,0,1-1.68-.62,2.62,2.62,0,0,1-.54-1.74V10.21h2.22v12h1.2v1.91Zm4-11.21a1.33,1.33,0,0,1-1-.34,1.26,1.26,0,0,1-.3-.86V11.3a1.12,1.12,0,0,1,1.3-1.2,1.31,1.31,0,0,1,1,.34,1.22,1.22,0,0,1,.31.86v.38a1.22,1.22,0,0,1-.31.86A1.31,1.31,0,0,1,38.07,12.88ZM37,14.3h2.22v9.79H37Zm7.61,9.79a2.21,2.21,0,0,1-1.74-.65,2.59,2.59,0,0,1-.6-1.84V16.21H40.9V14.3h.69a.8.8,0,0,0,.68-.25,1.35,1.35,0,0,0,.19-.76V11.62h2V14.3H46.3v1.91H44.45v6h1.72v1.91Zm6.38,0a2.21,2.21,0,0,1-1.74-.65,2.59,2.59,0,0,1-.6-1.84V16.21H47.27V14.3H48a.8.8,0,0,0,.68-.25,1.35,1.35,0,0,0,.19-.76V11.62h2V14.3h1.85v1.91H50.83v6h1.72v1.91Zm5.88,0a2.09,2.09,0,0,1-1.68-.62,2.52,2.52,0,0,1-.54-1.74V10.21h2.22v12H58v1.91Zm6.53.23A4.29,4.29,0,0,1,61.57,24a3.71,3.71,0,0,1-1.34-1,5,5,0,0,1-.84-1.61,7.3,7.3,0,0,1-.29-2.13,7.44,7.44,0,0,1,.28-2.1,4.93,4.93,0,0,1,.83-1.61,3.67,3.67,0,0,1,1.32-1,4,4,0,0,1,1.76-.36,3.91,3.91,0,0,1,1.84.39,3.47,3.47,0,0,1,1.28,1.07,4.72,4.72,0,0,1,.76,1.56A7.2,7.2,0,0,1,67.42,19v.79h-6V20A2.58,2.58,0,0,0,62,21.76a2,2,0,0,0,1.65.64A2.3,2.3,0,0,0,65,22a4.08,4.08,0,0,0,.94-1l1.2,1.45a3.86,3.86,0,0,1-1.52,1.32A5.06,5.06,0,0,1,63.36,24.32Zm0-8.44a1.72,1.72,0,0,0-1.41.63,2.6,2.6,0,0,0-.52,1.65v.15h3.71v-.16a2.67,2.67,0,0,0-.46-1.65A1.52,1.52,0,0,0,63.33,15.88Zm11.25-3a1.33,1.33,0,0,1-1-.34,1.26,1.26,0,0,1-.3-.86V11.3a1.12,1.12,0,0,1,1.3-1.2,1.31,1.31,0,0,1,1,.34,1.22,1.22,0,0,1,.31.86v.38a1.22,1.22,0,0,1-.31.86A1.31,1.31,0,0,1,74.58,12.88ZM73.47,14.3h2.22v9.79H73.47Zm4.78,9.79V14.3h2.22v1.63h.09a3.14,3.14,0,0,1,.88-1.32,2.37,2.37,0,0,1,1.65-.53,2.5,2.5,0,0,1,2.15,1A4.66,4.66,0,0,1,86,17.9v6.19H83.77V18.15a3,3,0,0,0-.35-1.58,1.24,1.24,0,0,0-1.14-.52,1.91,1.91,0,0,0-.67.1,1.56,1.56,0,0,0-.57.3,1.4,1.4,0,0,0-.41.49,1.45,1.45,0,0,0-.16.68v6.47Zm12,0-3-9.79h2.19l1.26,4.22L91.57,22h.12l.88-3.49,1.24-4.22h2.11l-3,9.79Zm10.66.23A4.29,4.29,0,0,1,99.12,24a3.71,3.71,0,0,1-1.34-1,5,5,0,0,1-.84-1.61,7.3,7.3,0,0,1-.29-2.13,7.44,7.44,0,0,1,.28-2.1,4.93,4.93,0,0,1,.83-1.61,3.67,3.67,0,0,1,1.32-1,4,4,0,0,1,1.76-.36,3.91,3.91,0,0,1,1.84.39A3.47,3.47,0,0,1,104,15.54a4.72,4.72,0,0,1,.76,1.56A7.2,7.2,0,0,1,105,19v.79H99V20a2.58,2.58,0,0,0,.56,1.72,2,2,0,0,0,1.65.64,2.3,2.3,0,0,0,1.36-.37,4.08,4.08,0,0,0,.94-1l1.2,1.45a3.86,3.86,0,0,1-1.52,1.32A5.06,5.06,0,0,1,100.91,24.32Zm0-8.44a1.72,1.72,0,0,0-1.41.63A2.6,2.6,0,0,0,99,18.16v.15h3.71v-.16a2.67,2.67,0,0,0-.46-1.65A1.52,1.52,0,0,0,100.88,15.88Zm9,8.44a4.6,4.6,0,0,1-2.18-.48,5.2,5.2,0,0,1-1.56-1.32l1.35-1.43a4.28,4.28,0,0,0,1.1,1,2.7,2.7,0,0,0,1.38.35,1.76,1.76,0,0,0,1.15-.3,1,1,0,0,0,.36-.82,1,1,0,0,0-.25-.69,1.54,1.54,0,0,0-.86-.34l-.9-.14a4.05,4.05,0,0,1-2.25-.91,2.64,2.64,0,0,1-.77-2,3.27,3.27,0,0,1,.24-1.28,2.67,2.67,0,0,1,.7-1,3.16,3.16,0,0,1,1.08-.62,4.23,4.23,0,0,1,1.41-.21,5.66,5.66,0,0,1,1.17.1,3.88,3.88,0,0,1,.93.3,3.4,3.4,0,0,1,.76.49,6.86,6.86,0,0,1,.68.64L112.13,17a3.58,3.58,0,0,0-.95-.75A2.62,2.62,0,0,0,110,16a1.58,1.58,0,0,0-1,.28,1.06,1.06,0,0,0,0,1.47,1.73,1.73,0,0,0,.91.37l.92.13c2,.3,2.93,1.26,2.93,2.89a3,3,0,0,1-.27,1.3,3.07,3.07,0,0,1-.75,1,3.65,3.65,0,0,1-1.17.65A5.05,5.05,0,0,1,109.89,24.32Zm8.38-.23a2.24,2.24,0,0,1-1.75-.65,2.59,2.59,0,0,1-.59-1.84V16.21h-1.34V14.3h.69a.81.81,0,0,0,.69-.25,1.26,1.26,0,0,0,.18-.76V11.62h2V14.3H120v1.91h-1.85v6h1.71v1.91Z" transform="translate(0.06)"/></svg>